<?xml version="1.0" encoding="UTF-8" standalone="no"?>
<!DOCTYPE svg PUBLIC "-//W3C//DTD SVG 1.1//EN"
 "http://www.w3.org/Graphics/SVG/1.1/DTD/svg11.dtd">
<!-- Generated by graphviz version 2.43.0 (0)
 -->
<!-- Title: masegraph Pages: 1 -->
<svg width="2509pt" height="1348pt"
 viewBox="0.00 0.00 2508.50 1348.00" xmlns="http://www.w3.org/2000/svg" xmlns:xlink="http://www.w3.org/1999/xlink">
<g id="graph0" class="graph" transform="scale(1 1) rotate(0) translate(4 1344)">
<title>masegraph</title>
<polygon fill="white" stroke="transparent" points="-4,4 -4,-1344 2504.5,-1344 2504.5,4 -4,4"/>
<!-- input_1 -->
<g id="node1" class="node">
<title>input_1</title>
<path fill="AliceBlue" stroke="black" d="M51.5,-1247.5C51.5,-1247.5 196.5,-1247.5 196.5,-1247.5 202.5,-1247.5 208.5,-1253.5 208.5,-1259.5 208.5,-1259.5 208.5,-1327.5 208.5,-1327.5 208.5,-1333.5 202.5,-1339.5 196.5,-1339.5 196.5,-1339.5 51.5,-1339.5 51.5,-1339.5 45.5,-1339.5 39.5,-1333.5 39.5,-1327.5 39.5,-1327.5 39.5,-1259.5 39.5,-1259.5 39.5,-1253.5 45.5,-1247.5 51.5,-1247.5"/>
<text text-anchor="middle" x="124" y="-1324.3" font-family="Times,serif" font-size="14.00" fill="#000000">name=%input_1</text>
<polyline fill="none" stroke="black" points="39.5,-1316.5 208.5,-1316.5 "/>
<text text-anchor="middle" x="124" y="-1301.3" font-family="Times,serif" font-size="14.00" fill="#000000">op_code=placeholder</text>
<polyline fill="none" stroke="black" points="39.5,-1293.5 208.5,-1293.5 "/>
<text text-anchor="middle" x="124" y="-1278.3" font-family="Times,serif" font-size="14.00" fill="#000000">target=input</text>
<polyline fill="none" stroke="black" points="39.5,-1270.5 208.5,-1270.5 "/>
<text text-anchor="middle" x="124" y="-1255.3" font-family="Times,serif" font-size="14.00" fill="#000000">num_users=1</text>
</g>
<!-- _0 -->
<g id="node2" class="node">
<title>_0</title>
<path fill="#fffacd" stroke="black" d="M12,-1095.5C12,-1095.5 236,-1095.5 236,-1095.5 242,-1095.5 248,-1101.5 248,-1107.5 248,-1107.5 248,-1198.5 248,-1198.5 248,-1204.5 242,-1210.5 236,-1210.5 236,-1210.5 12,-1210.5 12,-1210.5 6,-1210.5 0,-1204.5 0,-1198.5 0,-1198.5 0,-1107.5 0,-1107.5 0,-1101.5 6,-1095.5 12,-1095.5"/>
<text text-anchor="middle" x="124" y="-1195.3" font-family="Times,serif" font-size="14.00" fill="#000000">name=%_0</text>
<polyline fill="none" stroke="black" points="0,-1187.5 248,-1187.5 "/>
<text text-anchor="middle" x="124" y="-1172.3" font-family="Times,serif" font-size="14.00" fill="#000000">op_code=call_module</text>
<text text-anchor="middle" x="124" y="-1141.3" font-family="Times,serif" font-size="14.00" fill="#000000">torch.nn.modules.flatten.Flatten</text>
<polyline fill="none" stroke="black" points="0,-1133.5 248,-1133.5 "/>
<text text-anchor="middle" x="124" y="-1118.3" font-family="Times,serif" font-size="14.00" fill="#000000">start_dim: 1</text>
<text text-anchor="middle" x="124" y="-1103.3" font-family="Times,serif" font-size="14.00" fill="#000000">end_dim: &#45;1</text>
</g>
<!-- input_1&#45;&gt;_0 -->
<g id="edge13" class="edge">
<title>input_1&#45;&gt;_0</title>
<path fill="none" stroke="black" d="M124,-1247.15C124,-1238.67 124,-1229.64 124,-1220.67"/>
<polygon fill="black" stroke="black" points="127.5,-1220.6 124,-1210.6 120.5,-1220.6 127.5,-1220.6"/>
</g>
<!-- _1 -->
<g id="node3" class="node">
<title>_1</title>
<path fill="#fffacd" stroke="black" d="M347,-957.5C347,-957.5 541,-957.5 541,-957.5 547,-957.5 553,-963.5 553,-969.5 553,-969.5 553,-1046.5 553,-1046.5 553,-1052.5 547,-1058.5 541,-1058.5 541,-1058.5 347,-1058.5 347,-1058.5 341,-1058.5 335,-1052.5 335,-1046.5 335,-1046.5 335,-969.5 335,-969.5 335,-963.5 341,-957.5 347,-957.5"/>
<text text-anchor="middle" x="444" y="-1043.3" font-family="Times,serif" font-size="14.00" fill="#000000">name=%_1</text>
<polyline fill="none" stroke="black" points="335,-1035.5 553,-1035.5 "/>
<text text-anchor="middle" x="444" y="-1020.3" font-family="Times,serif" font-size="14.00" fill="#000000">op_code=call_module</text>
<text text-anchor="middle" x="444" y="-989.3" font-family="Times,serif" font-size="14.00" fill="#000000">difflogic.difflogic.LogicLayer</text>
<polyline fill="none" stroke="black" points="335,-981.5 553,-981.5 "/>
</g>
<!-- _0&#45;&gt;_1 -->
<g id="edge14" class="edge">
<title>_0&#45;&gt;_1</title>
<path fill="none" stroke="black" d="M248.18,-1096.51C273.68,-1085.11 300.47,-1073.14 325.75,-1061.84"/>
<polygon fill="black" stroke="black" points="327.3,-1064.99 335,-1057.71 324.44,-1058.59 327.3,-1064.99"/>
</g>
<!-- _2 -->
<g id="node6" class="node">
<title>_2</title>
<path fill="#fffacd" stroke="black" d="M652,-819.5C652,-819.5 846,-819.5 846,-819.5 852,-819.5 858,-825.5 858,-831.5 858,-831.5 858,-908.5 858,-908.5 858,-914.5 852,-920.5 846,-920.5 846,-920.5 652,-920.5 652,-920.5 646,-920.5 640,-914.5 640,-908.5 640,-908.5 640,-831.5 640,-831.5 640,-825.5 646,-819.5 652,-819.5"/>
<text text-anchor="middle" x="749" y="-905.3" font-family="Times,serif" font-size="14.00" fill="#000000">name=%_2</text>
<polyline fill="none" stroke="black" points="640,-897.5 858,-897.5 "/>
<text text-anchor="middle" x="749" y="-882.3" font-family="Times,serif" font-size="14.00" fill="#000000">op_code=call_module</text>
<text text-anchor="middle" x="749" y="-851.3" font-family="Times,serif" font-size="14.00" fill="#000000">difflogic.difflogic.LogicLayer</text>
<polyline fill="none" stroke="black" points="640,-843.5 858,-843.5 "/>
</g>
<!-- _1&#45;&gt;_2 -->
<g id="edge15" class="edge">
<title>_1&#45;&gt;_2</title>
<path fill="none" stroke="black" d="M553.25,-958.29C578.37,-947.08 605.19,-935.12 630.68,-923.76"/>
<polygon fill="black" stroke="black" points="632.29,-926.87 640,-919.6 629.44,-920.48 632.29,-926.87"/>
</g>
<!-- _1_weights -->
<g id="node4" class="node">
<title>_1_weights</title>
<path fill="Salmon" stroke="black" d="M278,-1130C278,-1130 610,-1130 610,-1130 616,-1130 622,-1136 622,-1142 622,-1142 622,-1164 622,-1164 622,-1170 616,-1176 610,-1176 610,-1176 278,-1176 278,-1176 272,-1176 266,-1170 266,-1164 266,-1164 266,-1142 266,-1142 266,-1136 272,-1130 278,-1130"/>
<text text-anchor="middle" x="444" y="-1160.8" font-family="Times,serif" font-size="14.00" fill="#000000">_1_weights</text>
<polyline fill="none" stroke="black" points="266,-1153 622,-1153 "/>
<text text-anchor="middle" x="444" y="-1137.8" font-family="Times,serif" font-size="14.00" fill="#000000">op_code=get_parametertorch.float32[8000, 16]</text>
</g>
<!-- _1_weights&#45;&gt;_1 -->
<g id="edge1" class="edge">
<title>_1_weights&#45;&gt;_1</title>
<path fill="none" stroke="black" d="M444,-1129.97C444,-1113.6 444,-1090.45 444,-1068.78"/>
<polygon fill="black" stroke="black" points="447.5,-1068.62 444,-1058.62 440.5,-1068.62 447.5,-1068.62"/>
</g>
<!-- _1.indices -->
<g id="node5" class="node">
<title>_1.indices</title>
<path fill="Salmon" stroke="black" d="M652.5,-1130C652.5,-1130 963.5,-1130 963.5,-1130 969.5,-1130 975.5,-1136 975.5,-1142 975.5,-1142 975.5,-1164 975.5,-1164 975.5,-1170 969.5,-1176 963.5,-1176 963.5,-1176 652.5,-1176 652.5,-1176 646.5,-1176 640.5,-1170 640.5,-1164 640.5,-1164 640.5,-1142 640.5,-1142 640.5,-1136 646.5,-1130 652.5,-1130"/>
<text text-anchor="middle" x="808" y="-1160.8" font-family="Times,serif" font-size="14.00" fill="#000000">_1.indices</text>
<polyline fill="none" stroke="black" points="640.5,-1153 975.5,-1153 "/>
<text text-anchor="middle" x="808" y="-1137.8" font-family="Times,serif" font-size="14.00" fill="#000000">op_code=get_parametertorch.int64[2, 8000]</text>
</g>
<!-- _1.indices&#45;&gt;_1 -->
<g id="edge2" class="edge">
<title>_1.indices&#45;&gt;_1</title>
<path fill="none" stroke="black" d="M747.59,-1129.92C699.88,-1112.3 631.42,-1086.65 562.9,-1059.33"/>
<polygon fill="black" stroke="black" points="563.81,-1055.92 553.23,-1055.46 561.21,-1062.42 563.81,-1055.92"/>
</g>
<!-- _3 -->
<g id="node9" class="node">
<title>_3</title>
<path fill="#fffacd" stroke="black" d="M957,-681.5C957,-681.5 1151,-681.5 1151,-681.5 1157,-681.5 1163,-687.5 1163,-693.5 1163,-693.5 1163,-770.5 1163,-770.5 1163,-776.5 1157,-782.5 1151,-782.5 1151,-782.5 957,-782.5 957,-782.5 951,-782.5 945,-776.5 945,-770.5 945,-770.5 945,-693.5 945,-693.5 945,-687.5 951,-681.5 957,-681.5"/>
<text text-anchor="middle" x="1054" y="-767.3" font-family="Times,serif" font-size="14.00" fill="#000000">name=%_3</text>
<polyline fill="none" stroke="black" points="945,-759.5 1163,-759.5 "/>
<text text-anchor="middle" x="1054" y="-744.3" font-family="Times,serif" font-size="14.00" fill="#000000">op_code=call_module</text>
<text text-anchor="middle" x="1054" y="-713.3" font-family="Times,serif" font-size="14.00" fill="#000000">difflogic.difflogic.LogicLayer</text>
<polyline fill="none" stroke="black" points="945,-705.5 1163,-705.5 "/>
</g>
<!-- _2&#45;&gt;_3 -->
<g id="edge16" class="edge">
<title>_2&#45;&gt;_3</title>
<path fill="none" stroke="black" d="M858.25,-820.29C883.37,-809.08 910.19,-797.12 935.68,-785.76"/>
<polygon fill="black" stroke="black" points="937.29,-788.87 945,-781.6 934.44,-782.48 937.29,-788.87"/>
</g>
<!-- _2_weights -->
<g id="node7" class="node">
<title>_2_weights</title>
<path fill="Salmon" stroke="black" d="M583,-985C583,-985 915,-985 915,-985 921,-985 927,-991 927,-997 927,-997 927,-1019 927,-1019 927,-1025 921,-1031 915,-1031 915,-1031 583,-1031 583,-1031 577,-1031 571,-1025 571,-1019 571,-1019 571,-997 571,-997 571,-991 577,-985 583,-985"/>
<text text-anchor="middle" x="749" y="-1015.8" font-family="Times,serif" font-size="14.00" fill="#000000">_2_weights</text>
<polyline fill="none" stroke="black" points="571,-1008 927,-1008 "/>
<text text-anchor="middle" x="749" y="-992.8" font-family="Times,serif" font-size="14.00" fill="#000000">op_code=get_parametertorch.float32[8000, 16]</text>
</g>
<!-- _2_weights&#45;&gt;_2 -->
<g id="edge3" class="edge">
<title>_2_weights&#45;&gt;_2</title>
<path fill="none" stroke="black" d="M749,-984.85C749,-970.11 749,-949.99 749,-930.77"/>
<polygon fill="black" stroke="black" points="752.5,-930.52 749,-920.52 745.5,-930.52 752.5,-930.52"/>
</g>
<!-- _2.indices -->
<g id="node8" class="node">
<title>_2.indices</title>
<path fill="Salmon" stroke="black" d="M957.5,-985C957.5,-985 1268.5,-985 1268.5,-985 1274.5,-985 1280.5,-991 1280.5,-997 1280.5,-997 1280.5,-1019 1280.5,-1019 1280.5,-1025 1274.5,-1031 1268.5,-1031 1268.5,-1031 957.5,-1031 957.5,-1031 951.5,-1031 945.5,-1025 945.5,-1019 945.5,-1019 945.5,-997 945.5,-997 945.5,-991 951.5,-985 957.5,-985"/>
<text text-anchor="middle" x="1113" y="-1015.8" font-family="Times,serif" font-size="14.00" fill="#000000">_2.indices</text>
<polyline fill="none" stroke="black" points="945.5,-1008 1280.5,-1008 "/>
<text text-anchor="middle" x="1113" y="-992.8" font-family="Times,serif" font-size="14.00" fill="#000000">op_code=get_parametertorch.int64[2, 8000]</text>
</g>
<!-- _2.indices&#45;&gt;_2 -->
<g id="edge4" class="edge">
<title>_2.indices&#45;&gt;_2</title>
<path fill="none" stroke="black" d="M1046.28,-984.97C998.88,-969.03 933.61,-946.46 867.89,-921.29"/>
<polygon fill="black" stroke="black" points="868.78,-917.88 858.19,-917.56 866.27,-924.42 868.78,-917.88"/>
</g>
<!-- _4 -->
<g id="node12" class="node">
<title>_4</title>
<path fill="#fffacd" stroke="black" d="M1262,-543.5C1262,-543.5 1456,-543.5 1456,-543.5 1462,-543.5 1468,-549.5 1468,-555.5 1468,-555.5 1468,-632.5 1468,-632.5 1468,-638.5 1462,-644.5 1456,-644.5 1456,-644.5 1262,-644.5 1262,-644.5 1256,-644.5 1250,-638.5 1250,-632.5 1250,-632.5 1250,-555.5 1250,-555.5 1250,-549.5 1256,-543.5 1262,-543.5"/>
<text text-anchor="middle" x="1359" y="-629.3" font-family="Times,serif" font-size="14.00" fill="#000000">name=%_4</text>
<polyline fill="none" stroke="black" points="1250,-621.5 1468,-621.5 "/>
<text text-anchor="middle" x="1359" y="-606.3" font-family="Times,serif" font-size="14.00" fill="#000000">op_code=call_module</text>
<text text-anchor="middle" x="1359" y="-575.3" font-family="Times,serif" font-size="14.00" fill="#000000">difflogic.difflogic.LogicLayer</text>
<polyline fill="none" stroke="black" points="1250,-567.5 1468,-567.5 "/>
</g>
<!-- _3&#45;&gt;_4 -->
<g id="edge17" class="edge">
<title>_3&#45;&gt;_4</title>
<path fill="none" stroke="black" d="M1163.25,-682.29C1188.37,-671.08 1215.19,-659.12 1240.68,-647.76"/>
<polygon fill="black" stroke="black" points="1242.29,-650.87 1250,-643.6 1239.44,-644.48 1242.29,-650.87"/>
</g>
<!-- _3_weights -->
<g id="node10" class="node">
<title>_3_weights</title>
<path fill="Salmon" stroke="black" d="M888,-847C888,-847 1220,-847 1220,-847 1226,-847 1232,-853 1232,-859 1232,-859 1232,-881 1232,-881 1232,-887 1226,-893 1220,-893 1220,-893 888,-893 888,-893 882,-893 876,-887 876,-881 876,-881 876,-859 876,-859 876,-853 882,-847 888,-847"/>
<text text-anchor="middle" x="1054" y="-877.8" font-family="Times,serif" font-size="14.00" fill="#000000">_3_weights</text>
<polyline fill="none" stroke="black" points="876,-870 1232,-870 "/>
<text text-anchor="middle" x="1054" y="-854.8" font-family="Times,serif" font-size="14.00" fill="#000000">op_code=get_parametertorch.float32[8000, 16]</text>
</g>
<!-- _3_weights&#45;&gt;_3 -->
<g id="edge5" class="edge">
<title>_3_weights&#45;&gt;_3</title>
<path fill="none" stroke="black" d="M1054,-846.85C1054,-832.11 1054,-811.99 1054,-792.77"/>
<polygon fill="black" stroke="black" points="1057.5,-792.52 1054,-782.52 1050.5,-792.52 1057.5,-792.52"/>
</g>
<!-- _3.indices -->
<g id="node11" class="node">
<title>_3.indices</title>
<path fill="Salmon" stroke="black" d="M1262.5,-847C1262.5,-847 1573.5,-847 1573.5,-847 1579.5,-847 1585.5,-853 1585.5,-859 1585.5,-859 1585.5,-881 1585.5,-881 1585.5,-887 1579.5,-893 1573.5,-893 1573.5,-893 1262.5,-893 1262.5,-893 1256.5,-893 1250.5,-887 1250.5,-881 1250.5,-881 1250.5,-859 1250.5,-859 1250.5,-853 1256.5,-847 1262.5,-847"/>
<text text-anchor="middle" x="1418" y="-877.8" font-family="Times,serif" font-size="14.00" fill="#000000">_3.indices</text>
<polyline fill="none" stroke="black" points="1250.5,-870 1585.5,-870 "/>
<text text-anchor="middle" x="1418" y="-854.8" font-family="Times,serif" font-size="14.00" fill="#000000">op_code=get_parametertorch.int64[2, 8000]</text>
</g>
<!-- _3.indices&#45;&gt;_3 -->
<g id="edge6" class="edge">
<title>_3.indices&#45;&gt;_3</title>
<path fill="none" stroke="black" d="M1351.28,-846.97C1303.88,-831.03 1238.61,-808.46 1172.89,-783.29"/>
<polygon fill="black" stroke="black" points="1173.78,-779.88 1163.19,-779.56 1171.27,-786.42 1173.78,-779.88"/>
</g>
<!-- _5 -->
<g id="node15" class="node">
<title>_5</title>
<path fill="#fffacd" stroke="black" d="M1567,-405.5C1567,-405.5 1761,-405.5 1761,-405.5 1767,-405.5 1773,-411.5 1773,-417.5 1773,-417.5 1773,-494.5 1773,-494.5 1773,-500.5 1767,-506.5 1761,-506.5 1761,-506.5 1567,-506.5 1567,-506.5 1561,-506.5 1555,-500.5 1555,-494.5 1555,-494.5 1555,-417.5 1555,-417.5 1555,-411.5 1561,-405.5 1567,-405.5"/>
<text text-anchor="middle" x="1664" y="-491.3" font-family="Times,serif" font-size="14.00" fill="#000000">name=%_5</text>
<polyline fill="none" stroke="black" points="1555,-483.5 1773,-483.5 "/>
<text text-anchor="middle" x="1664" y="-468.3" font-family="Times,serif" font-size="14.00" fill="#000000">op_code=call_module</text>
<text text-anchor="middle" x="1664" y="-437.3" font-family="Times,serif" font-size="14.00" fill="#000000">difflogic.difflogic.LogicLayer</text>
<polyline fill="none" stroke="black" points="1555,-429.5 1773,-429.5 "/>
</g>
<!-- _4&#45;&gt;_5 -->
<g id="edge18" class="edge">
<title>_4&#45;&gt;_5</title>
<path fill="none" stroke="black" d="M1468.25,-544.29C1493.37,-533.08 1520.19,-521.12 1545.68,-509.76"/>
<polygon fill="black" stroke="black" points="1547.29,-512.87 1555,-505.6 1544.44,-506.48 1547.29,-512.87"/>
</g>
<!-- _4_weights -->
<g id="node13" class="node">
<title>_4_weights</title>
<path fill="Salmon" stroke="black" d="M1193,-709C1193,-709 1525,-709 1525,-709 1531,-709 1537,-715 1537,-721 1537,-721 1537,-743 1537,-743 1537,-749 1531,-755 1525,-755 1525,-755 1193,-755 1193,-755 1187,-755 1181,-749 1181,-743 1181,-743 1181,-721 1181,-721 1181,-715 1187,-709 1193,-709"/>
<text text-anchor="middle" x="1359" y="-739.8" font-family="Times,serif" font-size="14.00" fill="#000000">_4_weights</text>
<polyline fill="none" stroke="black" points="1181,-732 1537,-732 "/>
<text text-anchor="middle" x="1359" y="-716.8" font-family="Times,serif" font-size="14.00" fill="#000000">op_code=get_parametertorch.float32[8000, 16]</text>
</g>
<!-- _4_weights&#45;&gt;_4 -->
<g id="edge7" class="edge">
<title>_4_weights&#45;&gt;_4</title>
<path fill="none" stroke="black" d="M1359,-708.85C1359,-694.11 1359,-673.99 1359,-654.77"/>
<polygon fill="black" stroke="black" points="1362.5,-654.52 1359,-644.52 1355.5,-654.52 1362.5,-654.52"/>
</g>
<!-- _4.indices -->
<g id="node14" class="node">
<title>_4.indices</title>
<path fill="Salmon" stroke="black" d="M1567.5,-709C1567.5,-709 1878.5,-709 1878.5,-709 1884.5,-709 1890.5,-715 1890.5,-721 1890.5,-721 1890.5,-743 1890.5,-743 1890.5,-749 1884.5,-755 1878.5,-755 1878.5,-755 1567.5,-755 1567.5,-755 1561.5,-755 1555.5,-749 1555.5,-743 1555.5,-743 1555.5,-721 1555.5,-721 1555.5,-715 1561.5,-709 1567.5,-709"/>
<text text-anchor="middle" x="1723" y="-739.8" font-family="Times,serif" font-size="14.00" fill="#000000">_4.indices</text>
<polyline fill="none" stroke="black" points="1555.5,-732 1890.5,-732 "/>
<text text-anchor="middle" x="1723" y="-716.8" font-family="Times,serif" font-size="14.00" fill="#000000">op_code=get_parametertorch.int64[2, 8000]</text>
</g>
<!-- _4.indices&#45;&gt;_4 -->
<g id="edge8" class="edge">
<title>_4.indices&#45;&gt;_4</title>
<path fill="none" stroke="black" d="M1656.28,-708.97C1608.88,-693.03 1543.61,-670.46 1477.89,-645.29"/>
<polygon fill="black" stroke="black" points="1478.78,-641.88 1468.19,-641.56 1476.27,-648.42 1478.78,-641.88"/>
</g>
<!-- _6 -->
<g id="node18" class="node">
<title>_6</title>
<path fill="#fffacd" stroke="black" d="M1872,-267.5C1872,-267.5 2066,-267.5 2066,-267.5 2072,-267.5 2078,-273.5 2078,-279.5 2078,-279.5 2078,-356.5 2078,-356.5 2078,-362.5 2072,-368.5 2066,-368.5 2066,-368.5 1872,-368.5 1872,-368.5 1866,-368.5 1860,-362.5 1860,-356.5 1860,-356.5 1860,-279.5 1860,-279.5 1860,-273.5 1866,-267.5 1872,-267.5"/>
<text text-anchor="middle" x="1969" y="-353.3" font-family="Times,serif" font-size="14.00" fill="#000000">name=%_6</text>
<polyline fill="none" stroke="black" points="1860,-345.5 2078,-345.5 "/>
<text text-anchor="middle" x="1969" y="-330.3" font-family="Times,serif" font-size="14.00" fill="#000000">op_code=call_module</text>
<text text-anchor="middle" x="1969" y="-299.3" font-family="Times,serif" font-size="14.00" fill="#000000">difflogic.difflogic.LogicLayer</text>
<polyline fill="none" stroke="black" points="1860,-291.5 2078,-291.5 "/>
</g>
<!-- _5&#45;&gt;_6 -->
<g id="edge19" class="edge">
<title>_5&#45;&gt;_6</title>
<path fill="none" stroke="black" d="M1773.25,-406.29C1798.37,-395.08 1825.19,-383.12 1850.68,-371.76"/>
<polygon fill="black" stroke="black" points="1852.29,-374.87 1860,-367.6 1849.44,-368.48 1852.29,-374.87"/>
</g>
<!-- _5_weights -->
<g id="node16" class="node">
<title>_5_weights</title>
<path fill="Salmon" stroke="black" d="M1498,-571C1498,-571 1830,-571 1830,-571 1836,-571 1842,-577 1842,-583 1842,-583 1842,-605 1842,-605 1842,-611 1836,-617 1830,-617 1830,-617 1498,-617 1498,-617 1492,-617 1486,-611 1486,-605 1486,-605 1486,-583 1486,-583 1486,-577 1492,-571 1498,-571"/>
<text text-anchor="middle" x="1664" y="-601.8" font-family="Times,serif" font-size="14.00" fill="#000000">_5_weights</text>
<polyline fill="none" stroke="black" points="1486,-594 1842,-594 "/>
<text text-anchor="middle" x="1664" y="-578.8" font-family="Times,serif" font-size="14.00" fill="#000000">op_code=get_parametertorch.float32[8000, 16]</text>
</g>
<!-- _5_weights&#45;&gt;_5 -->
<g id="edge9" class="edge">
<title>_5_weights&#45;&gt;_5</title>
<path fill="none" stroke="black" d="M1664,-570.85C1664,-556.11 1664,-535.99 1664,-516.77"/>
<polygon fill="black" stroke="black" points="1667.5,-516.52 1664,-506.52 1660.5,-516.52 1667.5,-516.52"/>
</g>
<!-- _5.indices -->
<g id="node17" class="node">
<title>_5.indices</title>
<path fill="Salmon" stroke="black" d="M1872.5,-571C1872.5,-571 2183.5,-571 2183.5,-571 2189.5,-571 2195.5,-577 2195.5,-583 2195.5,-583 2195.5,-605 2195.5,-605 2195.5,-611 2189.5,-617 2183.5,-617 2183.5,-617 1872.5,-617 1872.5,-617 1866.5,-617 1860.5,-611 1860.5,-605 1860.5,-605 1860.5,-583 1860.5,-583 1860.5,-577 1866.5,-571 1872.5,-571"/>
<text text-anchor="middle" x="2028" y="-601.8" font-family="Times,serif" font-size="14.00" fill="#000000">_5.indices</text>
<polyline fill="none" stroke="black" points="1860.5,-594 2195.5,-594 "/>
<text text-anchor="middle" x="2028" y="-578.8" font-family="Times,serif" font-size="14.00" fill="#000000">op_code=get_parametertorch.int64[2, 8000]</text>
</g>
<!-- _5.indices&#45;&gt;_5 -->
<g id="edge10" class="edge">
<title>_5.indices&#45;&gt;_5</title>
<path fill="none" stroke="black" d="M1961.28,-570.97C1913.88,-555.03 1848.61,-532.46 1782.89,-507.29"/>
<polygon fill="black" stroke="black" points="1783.78,-503.88 1773.19,-503.56 1781.27,-510.42 1783.78,-503.88"/>
</g>
<!-- _7 -->
<g id="node21" class="node">
<title>_7</title>
<path fill="#fffacd" stroke="black" d="M1873,-129.5C1873,-129.5 2065,-129.5 2065,-129.5 2071,-129.5 2077,-135.5 2077,-141.5 2077,-141.5 2077,-218.5 2077,-218.5 2077,-224.5 2071,-230.5 2065,-230.5 2065,-230.5 1873,-230.5 1873,-230.5 1867,-230.5 1861,-224.5 1861,-218.5 1861,-218.5 1861,-141.5 1861,-141.5 1861,-135.5 1867,-129.5 1873,-129.5"/>
<text text-anchor="middle" x="1969" y="-215.3" font-family="Times,serif" font-size="14.00" fill="#000000">name=%_7</text>
<polyline fill="none" stroke="black" points="1861,-207.5 2077,-207.5 "/>
<text text-anchor="middle" x="1969" y="-192.3" font-family="Times,serif" font-size="14.00" fill="#000000">op_code=call_module</text>
<text text-anchor="middle" x="1969" y="-161.3" font-family="Times,serif" font-size="14.00" fill="#000000">difflogic.difflogic.GroupSum</text>
<polyline fill="none" stroke="black" points="1861,-153.5 2077,-153.5 "/>
</g>
<!-- _6&#45;&gt;_7 -->
<g id="edge20" class="edge">
<title>_6&#45;&gt;_7</title>
<path fill="none" stroke="black" d="M1969,-267.13C1969,-258.63 1969,-249.72 1969,-240.99"/>
<polygon fill="black" stroke="black" points="1972.5,-240.86 1969,-230.86 1965.5,-240.86 1972.5,-240.86"/>
</g>
<!-- _6_weights -->
<g id="node19" class="node">
<title>_6_weights</title>
<path fill="Salmon" stroke="black" d="M1803,-433C1803,-433 2135,-433 2135,-433 2141,-433 2147,-439 2147,-445 2147,-445 2147,-467 2147,-467 2147,-473 2141,-479 2135,-479 2135,-479 1803,-479 1803,-479 1797,-479 1791,-473 1791,-467 1791,-467 1791,-445 1791,-445 1791,-439 1797,-433 1803,-433"/>
<text text-anchor="middle" x="1969" y="-463.8" font-family="Times,serif" font-size="14.00" fill="#000000">_6_weights</text>
<polyline fill="none" stroke="black" points="1791,-456 2147,-456 "/>
<text text-anchor="middle" x="1969" y="-440.8" font-family="Times,serif" font-size="14.00" fill="#000000">op_code=get_parametertorch.float32[8000, 16]</text>
</g>
<!-- _6_weights&#45;&gt;_6 -->
<g id="edge11" class="edge">
<title>_6_weights&#45;&gt;_6</title>
<path fill="none" stroke="black" d="M1969,-432.85C1969,-418.11 1969,-397.99 1969,-378.77"/>
<polygon fill="black" stroke="black" points="1972.5,-378.52 1969,-368.52 1965.5,-378.52 1972.5,-378.52"/>
</g>
<!-- _6.indices -->
<g id="node20" class="node">
<title>_6.indices</title>
<path fill="Salmon" stroke="black" d="M2177.5,-433C2177.5,-433 2488.5,-433 2488.5,-433 2494.5,-433 2500.5,-439 2500.5,-445 2500.5,-445 2500.5,-467 2500.5,-467 2500.5,-473 2494.5,-479 2488.5,-479 2488.5,-479 2177.5,-479 2177.5,-479 2171.5,-479 2165.5,-473 2165.5,-467 2165.5,-467 2165.5,-445 2165.5,-445 2165.5,-439 2171.5,-433 2177.5,-433"/>
<text text-anchor="middle" x="2333" y="-463.8" font-family="Times,serif" font-size="14.00" fill="#000000">_6.indices</text>
<polyline fill="none" stroke="black" points="2165.5,-456 2500.5,-456 "/>
<text text-anchor="middle" x="2333" y="-440.8" font-family="Times,serif" font-size="14.00" fill="#000000">op_code=get_parametertorch.int64[2, 8000]</text>
</g>
<!-- _6.indices&#45;&gt;_6 -->
<g id="edge12" class="edge">
<title>_6.indices&#45;&gt;_6</title>
<path fill="none" stroke="black" d="M2274.11,-433C2223.87,-414.23 2150.07,-386.65 2087.64,-363.33"/>
<polygon fill="black" stroke="black" points="2088.71,-359.99 2078.12,-359.77 2086.26,-366.55 2088.71,-359.99"/>
</g>
<!-- output -->
<g id="node22" class="node">
<title>output</title>
<path fill="PowderBlue" stroke="black" d="M1914.5,-0.5C1914.5,-0.5 2023.5,-0.5 2023.5,-0.5 2029.5,-0.5 2035.5,-6.5 2035.5,-12.5 2035.5,-12.5 2035.5,-80.5 2035.5,-80.5 2035.5,-86.5 2029.5,-92.5 2023.5,-92.5 2023.5,-92.5 1914.5,-92.5 1914.5,-92.5 1908.5,-92.5 1902.5,-86.5 1902.5,-80.5 1902.5,-80.5 1902.5,-12.5 1902.5,-12.5 1902.5,-6.5 1908.5,-0.5 1914.5,-0.5"/>
<text text-anchor="middle" x="1969" y="-77.3" font-family="Times,serif" font-size="14.00" fill="#000000">name=%output</text>
<polyline fill="none" stroke="black" points="1902.5,-69.5 2035.5,-69.5 "/>
<text text-anchor="middle" x="1969" y="-54.3" font-family="Times,serif" font-size="14.00" fill="#000000">op_code=output</text>
<polyline fill="none" stroke="black" points="1902.5,-46.5 2035.5,-46.5 "/>
<text text-anchor="middle" x="1969" y="-31.3" font-family="Times,serif" font-size="14.00" fill="#000000">target=output</text>
<polyline fill="none" stroke="black" points="1902.5,-23.5 2035.5,-23.5 "/>
<text text-anchor="middle" x="1969" y="-8.3" font-family="Times,serif" font-size="14.00" fill="#000000">num_users=0</text>
</g>
<!-- _7&#45;&gt;output -->
<g id="edge21" class="edge">
<title>_7&#45;&gt;output</title>
<path fill="none" stroke="black" d="M1969,-129.29C1969,-120.61 1969,-111.53 1969,-102.72"/>
<polygon fill="black" stroke="black" points="1972.5,-102.53 1969,-92.53 1965.5,-102.53 1972.5,-102.53"/>
</g>
</g>
</svg>
