<?xml version="1.0" encoding="UTF-8" standalone="no"?>
<!DOCTYPE svg PUBLIC "-//W3C//DTD SVG 1.1//EN"
 "http://www.w3.org/Graphics/SVG/1.1/DTD/svg11.dtd">
<!-- Generated by graphviz version 2.43.0 (0)
 -->
<!-- Title: masegraph Pages: 1 -->
<svg width="1975pt" height="1112pt"
 viewBox="0.00 0.00 1974.50 1112.00" xmlns="http://www.w3.org/2000/svg" xmlns:xlink="http://www.w3.org/1999/xlink">
<g id="graph0" class="graph" transform="scale(1 1) rotate(0) translate(4 1108)">
<title>masegraph</title>
<polygon fill="white" stroke="transparent" points="-4,4 -4,-1108 1970.5,-1108 1970.5,4 -4,4"/>
<!-- x -->
<g id="node1" class="node">
<title>x</title>
<path fill="AliceBlue" stroke="black" d="M12,-1011.5C12,-1011.5 157,-1011.5 157,-1011.5 163,-1011.5 169,-1017.5 169,-1023.5 169,-1023.5 169,-1091.5 169,-1091.5 169,-1097.5 163,-1103.5 157,-1103.5 157,-1103.5 12,-1103.5 12,-1103.5 6,-1103.5 0,-1097.5 0,-1091.5 0,-1091.5 0,-1023.5 0,-1023.5 0,-1017.5 6,-1011.5 12,-1011.5"/>
<text text-anchor="middle" x="84.5" y="-1088.3" font-family="Times,serif" font-size="14.00" fill="#000000">name=%x</text>
<polyline fill="none" stroke="black" points="0,-1080.5 169,-1080.5 "/>
<text text-anchor="middle" x="84.5" y="-1065.3" font-family="Times,serif" font-size="14.00" fill="#000000">op_code=placeholder</text>
<polyline fill="none" stroke="black" points="0,-1057.5 169,-1057.5 "/>
<text text-anchor="middle" x="84.5" y="-1042.3" font-family="Times,serif" font-size="14.00" fill="#000000">target=x</text>
<polyline fill="none" stroke="black" points="0,-1034.5 169,-1034.5 "/>
<text text-anchor="middle" x="84.5" y="-1019.3" font-family="Times,serif" font-size="14.00" fill="#000000">num_users=1</text>
</g>
<!-- net_0 -->
<g id="node2" class="node">
<title>net_0</title>
<path fill="#fffacd" stroke="black" d="M322,-859.5C322,-859.5 701,-859.5 701,-859.5 707,-859.5 713,-865.5 713,-871.5 713,-871.5 713,-962.5 713,-962.5 713,-968.5 707,-974.5 701,-974.5 701,-974.5 322,-974.5 322,-974.5 316,-974.5 310,-968.5 310,-962.5 310,-962.5 310,-871.5 310,-871.5 310,-865.5 316,-859.5 322,-859.5"/>
<text text-anchor="middle" x="511.5" y="-959.3" font-family="Times,serif" font-size="14.00" fill="#000000">name=%net_0</text>
<polyline fill="none" stroke="black" points="310,-951.5 713,-951.5 "/>
<text text-anchor="middle" x="511.5" y="-936.3" font-family="Times,serif" font-size="14.00" fill="#000000">op_code=call_module</text>
<text text-anchor="middle" x="511.5" y="-905.3" font-family="Times,serif" font-size="14.00" fill="#000000">torch.nn.utils.parametrize.ParametrizedLinearInteger</text>
<polyline fill="none" stroke="black" points="310,-897.5 713,-897.5 "/>
<text text-anchor="middle" x="511.5" y="-882.3" font-family="Times,serif" font-size="14.00" fill="#000000">in_features: 2</text>
<text text-anchor="middle" x="511.5" y="-867.3" font-family="Times,serif" font-size="14.00" fill="#000000">out_features: 64</text>
</g>
<!-- x&#45;&gt;net_0 -->
<g id="edge10" class="edge">
<title>x&#45;&gt;net_0</title>
<path fill="none" stroke="black" d="M169.11,-1014.31C171.93,-1013.16 174.73,-1012.05 177.5,-1011 216.57,-996.15 259.01,-982.51 300.13,-970.52"/>
<polygon fill="black" stroke="black" points="301.35,-973.81 309.99,-967.67 299.41,-967.09 301.35,-973.81"/>
</g>
<!-- net_1 -->
<g id="node6" class="node">
<title>net_1</title>
<path fill="#fffacd" stroke="black" d="M393.5,-722.5C393.5,-722.5 629.5,-722.5 629.5,-722.5 635.5,-722.5 641.5,-728.5 641.5,-734.5 641.5,-734.5 641.5,-810.5 641.5,-810.5 641.5,-816.5 635.5,-822.5 629.5,-822.5 629.5,-822.5 393.5,-822.5 393.5,-822.5 387.5,-822.5 381.5,-816.5 381.5,-810.5 381.5,-810.5 381.5,-734.5 381.5,-734.5 381.5,-728.5 387.5,-722.5 393.5,-722.5"/>
<text text-anchor="middle" x="511.5" y="-807.3" font-family="Times,serif" font-size="14.00" fill="#000000">name=%net_1</text>
<polyline fill="none" stroke="black" points="381.5,-799.5 641.5,-799.5 "/>
<text text-anchor="middle" x="511.5" y="-784.3" font-family="Times,serif" font-size="14.00" fill="#000000">op_code=call_module</text>
<text text-anchor="middle" x="511.5" y="-753.3" font-family="Times,serif" font-size="14.00" fill="#000000">torch.nn.modules.activation.ReLU</text>
<polyline fill="none" stroke="black" points="381.5,-745.5 641.5,-745.5 "/>
<text text-anchor="middle" x="511.5" y="-730.3" font-family="Times,serif" font-size="14.00" fill="#000000">inplace: False</text>
</g>
<!-- net_0&#45;&gt;net_1 -->
<g id="edge11" class="edge">
<title>net_0&#45;&gt;net_1</title>
<path fill="none" stroke="black" d="M511.5,-859.27C511.5,-850.57 511.5,-841.56 511.5,-832.81"/>
<polygon fill="black" stroke="black" points="515,-832.67 511.5,-822.67 508,-832.67 515,-832.67"/>
</g>
<!-- net_0_bias -->
<g id="node3" class="node">
<title>net_0_bias</title>
<path fill="Salmon" stroke="black" d="M199,-1034.5C199,-1034.5 486,-1034.5 486,-1034.5 492,-1034.5 498,-1040.5 498,-1046.5 498,-1046.5 498,-1068.5 498,-1068.5 498,-1074.5 492,-1080.5 486,-1080.5 486,-1080.5 199,-1080.5 199,-1080.5 193,-1080.5 187,-1074.5 187,-1068.5 187,-1068.5 187,-1046.5 187,-1046.5 187,-1040.5 193,-1034.5 199,-1034.5"/>
<text text-anchor="middle" x="342.5" y="-1065.3" font-family="Times,serif" font-size="14.00" fill="#000000">net_0_bias</text>
<polyline fill="none" stroke="black" points="187,-1057.5 498,-1057.5 "/>
<text text-anchor="middle" x="342.5" y="-1042.3" font-family="Times,serif" font-size="14.00" fill="#000000">op_code=get_parametertorch.float32[64]</text>
</g>
<!-- net_0_bias&#45;&gt;net_0 -->
<g id="edge1" class="edge">
<title>net_0_bias&#45;&gt;net_0</title>
<path fill="none" stroke="black" d="M369.65,-1034.25C387.34,-1019.75 411.38,-1000.05 434.63,-980.99"/>
<polygon fill="black" stroke="black" points="436.97,-983.61 442.48,-974.56 432.53,-978.19 436.97,-983.61"/>
</g>
<!-- net_0.parametrizations_weight.original -->
<g id="node4" class="node">
<title>net_0.parametrizations_weight.original</title>
<path fill="Salmon" stroke="black" d="M528,-1034.5C528,-1034.5 833,-1034.5 833,-1034.5 839,-1034.5 845,-1040.5 845,-1046.5 845,-1046.5 845,-1068.5 845,-1068.5 845,-1074.5 839,-1080.5 833,-1080.5 833,-1080.5 528,-1080.5 528,-1080.5 522,-1080.5 516,-1074.5 516,-1068.5 516,-1068.5 516,-1046.5 516,-1046.5 516,-1040.5 522,-1034.5 528,-1034.5"/>
<text text-anchor="middle" x="680.5" y="-1065.3" font-family="Times,serif" font-size="14.00" fill="#000000">net_0.parametrizations_weight.original</text>
<polyline fill="none" stroke="black" points="516,-1057.5 845,-1057.5 "/>
<text text-anchor="middle" x="680.5" y="-1042.3" font-family="Times,serif" font-size="14.00" fill="#000000">op_code=get_parametertorch.float32[64, 2]</text>
</g>
<!-- net_0.parametrizations_weight.original&#45;&gt;net_0 -->
<g id="edge2" class="edge">
<title>net_0.parametrizations_weight.original&#45;&gt;net_0</title>
<path fill="none" stroke="black" d="M653.35,-1034.25C635.66,-1019.75 611.62,-1000.05 588.37,-980.99"/>
<polygon fill="black" stroke="black" points="590.47,-978.19 580.52,-974.56 586.03,-983.61 590.47,-978.19"/>
</g>
<!-- net_0.parametrizations_weight.0.mask -->
<g id="node5" class="node">
<title>net_0.parametrizations_weight.0.mask</title>
<path fill="Salmon" stroke="black" d="M875,-1038.5C875,-1038.5 986,-1038.5 986,-1038.5 992,-1038.5 998,-1044.5 998,-1050.5 998,-1050.5 998,-1064.5 998,-1064.5 998,-1070.5 992,-1076.5 986,-1076.5 986,-1076.5 875,-1076.5 875,-1076.5 869,-1076.5 863,-1070.5 863,-1064.5 863,-1064.5 863,-1050.5 863,-1050.5 863,-1044.5 869,-1038.5 875,-1038.5"/>
<text text-anchor="start" x="871" y="-1061.3" font-family="Times,serif" font-size="14.00" fill="#000000">buffer</text>
<text text-anchor="middle" x="930.5" y="-1046.3" font-family="Times,serif" font-size="14.00" fill="#000000">torch.bool[64, 2]</text>
</g>
<!-- net_0.parametrizations_weight.0.mask&#45;&gt;net_0 -->
<g id="edge3" class="edge">
<title>net_0.parametrizations_weight.0.mask&#45;&gt;net_0</title>
<path fill="none" stroke="black" d="M904.37,-1038.41C890.13,-1029.2 871.91,-1018.4 854.5,-1011 812.98,-993.34 767.18,-978.18 722.95,-965.53"/>
<polygon fill="black" stroke="black" points="723.82,-962.14 713.24,-962.79 721.91,-968.88 723.82,-962.14"/>
</g>
<!-- net_2 -->
<g id="node7" class="node">
<title>net_2</title>
<path fill="#fffacd" stroke="black" d="M391,-570.5C391,-570.5 632,-570.5 632,-570.5 638,-570.5 644,-576.5 644,-582.5 644,-582.5 644,-673.5 644,-673.5 644,-679.5 638,-685.5 632,-685.5 632,-685.5 391,-685.5 391,-685.5 385,-685.5 379,-679.5 379,-673.5 379,-673.5 379,-582.5 379,-582.5 379,-576.5 385,-570.5 391,-570.5"/>
<text text-anchor="middle" x="511.5" y="-670.3" font-family="Times,serif" font-size="14.00" fill="#000000">name=%net_2</text>
<polyline fill="none" stroke="black" points="379,-662.5 644,-662.5 "/>
<text text-anchor="middle" x="511.5" y="-647.3" font-family="Times,serif" font-size="14.00" fill="#000000">op_code=call_module</text>
<text text-anchor="middle" x="511.5" y="-616.3" font-family="Times,serif" font-size="14.00" fill="#000000">torch.nn.modules.dropout.Dropout</text>
<polyline fill="none" stroke="black" points="379,-608.5 644,-608.5 "/>
<text text-anchor="middle" x="511.5" y="-593.3" font-family="Times,serif" font-size="14.00" fill="#000000">p: 0.1</text>
<text text-anchor="middle" x="511.5" y="-578.3" font-family="Times,serif" font-size="14.00" fill="#000000">inplace: False</text>
</g>
<!-- net_1&#45;&gt;net_2 -->
<g id="edge12" class="edge">
<title>net_1&#45;&gt;net_2</title>
<path fill="none" stroke="black" d="M511.5,-722.46C511.5,-713.92 511.5,-704.91 511.5,-695.98"/>
<polygon fill="black" stroke="black" points="515,-695.98 511.5,-685.98 508,-695.98 515,-695.98"/>
</g>
<!-- net_3 -->
<g id="node8" class="node">
<title>net_3</title>
<path fill="#fffacd" stroke="black" d="M799,-418.5C799,-418.5 1178,-418.5 1178,-418.5 1184,-418.5 1190,-424.5 1190,-430.5 1190,-430.5 1190,-521.5 1190,-521.5 1190,-527.5 1184,-533.5 1178,-533.5 1178,-533.5 799,-533.5 799,-533.5 793,-533.5 787,-527.5 787,-521.5 787,-521.5 787,-430.5 787,-430.5 787,-424.5 793,-418.5 799,-418.5"/>
<text text-anchor="middle" x="988.5" y="-518.3" font-family="Times,serif" font-size="14.00" fill="#000000">name=%net_3</text>
<polyline fill="none" stroke="black" points="787,-510.5 1190,-510.5 "/>
<text text-anchor="middle" x="988.5" y="-495.3" font-family="Times,serif" font-size="14.00" fill="#000000">op_code=call_module</text>
<text text-anchor="middle" x="988.5" y="-464.3" font-family="Times,serif" font-size="14.00" fill="#000000">torch.nn.utils.parametrize.ParametrizedLinearInteger</text>
<polyline fill="none" stroke="black" points="787,-456.5 1190,-456.5 "/>
<text text-anchor="middle" x="988.5" y="-441.3" font-family="Times,serif" font-size="14.00" fill="#000000">in_features: 64</text>
<text text-anchor="middle" x="988.5" y="-426.3" font-family="Times,serif" font-size="14.00" fill="#000000">out_features: 64</text>
</g>
<!-- net_2&#45;&gt;net_3 -->
<g id="edge13" class="edge">
<title>net_2&#45;&gt;net_3</title>
<path fill="none" stroke="black" d="M644.36,-573.15C647.43,-572.07 650.48,-571.02 653.5,-570 693.07,-556.61 735.72,-543.67 776.9,-531.9"/>
<polygon fill="black" stroke="black" points="778.12,-535.2 786.78,-529.1 776.2,-528.46 778.12,-535.2"/>
</g>
<!-- net_4 -->
<g id="node12" class="node">
<title>net_4</title>
<path fill="#fffacd" stroke="black" d="M870.5,-281.5C870.5,-281.5 1106.5,-281.5 1106.5,-281.5 1112.5,-281.5 1118.5,-287.5 1118.5,-293.5 1118.5,-293.5 1118.5,-369.5 1118.5,-369.5 1118.5,-375.5 1112.5,-381.5 1106.5,-381.5 1106.5,-381.5 870.5,-381.5 870.5,-381.5 864.5,-381.5 858.5,-375.5 858.5,-369.5 858.5,-369.5 858.5,-293.5 858.5,-293.5 858.5,-287.5 864.5,-281.5 870.5,-281.5"/>
<text text-anchor="middle" x="988.5" y="-366.3" font-family="Times,serif" font-size="14.00" fill="#000000">name=%net_4</text>
<polyline fill="none" stroke="black" points="858.5,-358.5 1118.5,-358.5 "/>
<text text-anchor="middle" x="988.5" y="-343.3" font-family="Times,serif" font-size="14.00" fill="#000000">op_code=call_module</text>
<text text-anchor="middle" x="988.5" y="-312.3" font-family="Times,serif" font-size="14.00" fill="#000000">torch.nn.modules.activation.ReLU</text>
<polyline fill="none" stroke="black" points="858.5,-304.5 1118.5,-304.5 "/>
<text text-anchor="middle" x="988.5" y="-289.3" font-family="Times,serif" font-size="14.00" fill="#000000">inplace: False</text>
</g>
<!-- net_3&#45;&gt;net_4 -->
<g id="edge14" class="edge">
<title>net_3&#45;&gt;net_4</title>
<path fill="none" stroke="black" d="M988.5,-418.27C988.5,-409.57 988.5,-400.56 988.5,-391.81"/>
<polygon fill="black" stroke="black" points="992,-391.67 988.5,-381.67 985,-391.67 992,-391.67"/>
</g>
<!-- net_3_bias -->
<g id="node9" class="node">
<title>net_3_bias</title>
<path fill="Salmon" stroke="black" d="M674,-605C674,-605 961,-605 961,-605 967,-605 973,-611 973,-617 973,-617 973,-639 973,-639 973,-645 967,-651 961,-651 961,-651 674,-651 674,-651 668,-651 662,-645 662,-639 662,-639 662,-617 662,-617 662,-611 668,-605 674,-605"/>
<text text-anchor="middle" x="817.5" y="-635.8" font-family="Times,serif" font-size="14.00" fill="#000000">net_3_bias</text>
<polyline fill="none" stroke="black" points="662,-628 973,-628 "/>
<text text-anchor="middle" x="817.5" y="-612.8" font-family="Times,serif" font-size="14.00" fill="#000000">op_code=get_parametertorch.float32[64]</text>
</g>
<!-- net_3_bias&#45;&gt;net_3 -->
<g id="edge4" class="edge">
<title>net_3_bias&#45;&gt;net_3</title>
<path fill="none" stroke="black" d="M842.73,-604.87C862.18,-587.81 890.09,-563.32 916.3,-540.34"/>
<polygon fill="black" stroke="black" points="918.79,-542.81 924,-533.58 914.17,-537.54 918.79,-542.81"/>
</g>
<!-- net_3.parametrizations_weight.original -->
<g id="node10" class="node">
<title>net_3.parametrizations_weight.original</title>
<path fill="Salmon" stroke="black" d="M1003.5,-605C1003.5,-605 1317.5,-605 1317.5,-605 1323.5,-605 1329.5,-611 1329.5,-617 1329.5,-617 1329.5,-639 1329.5,-639 1329.5,-645 1323.5,-651 1317.5,-651 1317.5,-651 1003.5,-651 1003.5,-651 997.5,-651 991.5,-645 991.5,-639 991.5,-639 991.5,-617 991.5,-617 991.5,-611 997.5,-605 1003.5,-605"/>
<text text-anchor="middle" x="1160.5" y="-635.8" font-family="Times,serif" font-size="14.00" fill="#000000">net_3.parametrizations_weight.original</text>
<polyline fill="none" stroke="black" points="991.5,-628 1329.5,-628 "/>
<text text-anchor="middle" x="1160.5" y="-612.8" font-family="Times,serif" font-size="14.00" fill="#000000">op_code=get_parametertorch.float32[64, 64]</text>
</g>
<!-- net_3.parametrizations_weight.original&#45;&gt;net_3 -->
<g id="edge5" class="edge">
<title>net_3.parametrizations_weight.original&#45;&gt;net_3</title>
<path fill="none" stroke="black" d="M1135.12,-604.87C1115.56,-587.81 1087.48,-563.32 1061.13,-540.34"/>
<polygon fill="black" stroke="black" points="1063.22,-537.52 1053.38,-533.58 1058.62,-542.79 1063.22,-537.52"/>
</g>
<!-- net_3.parametrizations_weight.0.mask -->
<g id="node11" class="node">
<title>net_3.parametrizations_weight.0.mask</title>
<path fill="Salmon" stroke="black" d="M1359.5,-609C1359.5,-609 1479.5,-609 1479.5,-609 1485.5,-609 1491.5,-615 1491.5,-621 1491.5,-621 1491.5,-635 1491.5,-635 1491.5,-641 1485.5,-647 1479.5,-647 1479.5,-647 1359.5,-647 1359.5,-647 1353.5,-647 1347.5,-641 1347.5,-635 1347.5,-635 1347.5,-621 1347.5,-621 1347.5,-615 1353.5,-609 1359.5,-609"/>
<text text-anchor="start" x="1355.5" y="-631.8" font-family="Times,serif" font-size="14.00" fill="#000000">buffer</text>
<text text-anchor="middle" x="1419.5" y="-616.8" font-family="Times,serif" font-size="14.00" fill="#000000">torch.bool[64, 64]</text>
</g>
<!-- net_3.parametrizations_weight.0.mask&#45;&gt;net_3 -->
<g id="edge6" class="edge">
<title>net_3.parametrizations_weight.0.mask&#45;&gt;net_3</title>
<path fill="none" stroke="black" d="M1398.12,-608.76C1382.5,-596.27 1360.32,-580.18 1338.5,-570 1295.28,-549.84 1246.94,-533.46 1200.32,-520.39"/>
<polygon fill="black" stroke="black" points="1200.97,-516.94 1190.4,-517.65 1199.1,-523.69 1200.97,-516.94"/>
</g>
<!-- net_5 -->
<g id="node13" class="node">
<title>net_5</title>
<path fill="#fffacd" stroke="black" d="M1274,-129.5C1274,-129.5 1653,-129.5 1653,-129.5 1659,-129.5 1665,-135.5 1665,-141.5 1665,-141.5 1665,-232.5 1665,-232.5 1665,-238.5 1659,-244.5 1653,-244.5 1653,-244.5 1274,-244.5 1274,-244.5 1268,-244.5 1262,-238.5 1262,-232.5 1262,-232.5 1262,-141.5 1262,-141.5 1262,-135.5 1268,-129.5 1274,-129.5"/>
<text text-anchor="middle" x="1463.5" y="-229.3" font-family="Times,serif" font-size="14.00" fill="#000000">name=%net_5</text>
<polyline fill="none" stroke="black" points="1262,-221.5 1665,-221.5 "/>
<text text-anchor="middle" x="1463.5" y="-206.3" font-family="Times,serif" font-size="14.00" fill="#000000">op_code=call_module</text>
<text text-anchor="middle" x="1463.5" y="-175.3" font-family="Times,serif" font-size="14.00" fill="#000000">torch.nn.utils.parametrize.ParametrizedLinearInteger</text>
<polyline fill="none" stroke="black" points="1262,-167.5 1665,-167.5 "/>
<text text-anchor="middle" x="1463.5" y="-152.3" font-family="Times,serif" font-size="14.00" fill="#000000">in_features: 64</text>
<text text-anchor="middle" x="1463.5" y="-137.3" font-family="Times,serif" font-size="14.00" fill="#000000">out_features: 16</text>
</g>
<!-- net_4&#45;&gt;net_5 -->
<g id="edge15" class="edge">
<title>net_4&#45;&gt;net_5</title>
<path fill="none" stroke="black" d="M1118.81,-284.09C1122.07,-283.04 1125.3,-282.01 1128.5,-281 1168.2,-268.49 1210.83,-255.96 1251.92,-244.35"/>
<polygon fill="black" stroke="black" points="1253.1,-247.65 1261.77,-241.57 1251.2,-240.92 1253.1,-247.65"/>
</g>
<!-- output -->
<g id="node17" class="node">
<title>output</title>
<path fill="PowderBlue" stroke="black" d="M1409,-0.5C1409,-0.5 1518,-0.5 1518,-0.5 1524,-0.5 1530,-6.5 1530,-12.5 1530,-12.5 1530,-80.5 1530,-80.5 1530,-86.5 1524,-92.5 1518,-92.5 1518,-92.5 1409,-92.5 1409,-92.5 1403,-92.5 1397,-86.5 1397,-80.5 1397,-80.5 1397,-12.5 1397,-12.5 1397,-6.5 1403,-0.5 1409,-0.5"/>
<text text-anchor="middle" x="1463.5" y="-77.3" font-family="Times,serif" font-size="14.00" fill="#000000">name=%output</text>
<polyline fill="none" stroke="black" points="1397,-69.5 1530,-69.5 "/>
<text text-anchor="middle" x="1463.5" y="-54.3" font-family="Times,serif" font-size="14.00" fill="#000000">op_code=output</text>
<polyline fill="none" stroke="black" points="1397,-46.5 1530,-46.5 "/>
<text text-anchor="middle" x="1463.5" y="-31.3" font-family="Times,serif" font-size="14.00" fill="#000000">target=output</text>
<polyline fill="none" stroke="black" points="1397,-23.5 1530,-23.5 "/>
<text text-anchor="middle" x="1463.5" y="-8.3" font-family="Times,serif" font-size="14.00" fill="#000000">num_users=0</text>
</g>
<!-- net_5&#45;&gt;output -->
<g id="edge16" class="edge">
<title>net_5&#45;&gt;output</title>
<path fill="none" stroke="black" d="M1463.5,-129.27C1463.5,-120.57 1463.5,-111.6 1463.5,-102.93"/>
<polygon fill="black" stroke="black" points="1467,-102.92 1463.5,-92.92 1460,-102.92 1467,-102.92"/>
</g>
<!-- net_5_bias -->
<g id="node14" class="node">
<title>net_5_bias</title>
<path fill="Salmon" stroke="black" d="M1149,-308.5C1149,-308.5 1436,-308.5 1436,-308.5 1442,-308.5 1448,-314.5 1448,-320.5 1448,-320.5 1448,-342.5 1448,-342.5 1448,-348.5 1442,-354.5 1436,-354.5 1436,-354.5 1149,-354.5 1149,-354.5 1143,-354.5 1137,-348.5 1137,-342.5 1137,-342.5 1137,-320.5 1137,-320.5 1137,-314.5 1143,-308.5 1149,-308.5"/>
<text text-anchor="middle" x="1292.5" y="-339.3" font-family="Times,serif" font-size="14.00" fill="#000000">net_5_bias</text>
<polyline fill="none" stroke="black" points="1137,-331.5 1448,-331.5 "/>
<text text-anchor="middle" x="1292.5" y="-316.3" font-family="Times,serif" font-size="14.00" fill="#000000">op_code=get_parametertorch.float32[16]</text>
</g>
<!-- net_5_bias&#45;&gt;net_5 -->
<g id="edge7" class="edge">
<title>net_5_bias&#45;&gt;net_5</title>
<path fill="none" stroke="black" d="M1319.22,-308.23C1337.7,-292.84 1363.27,-271.52 1387.77,-251.11"/>
<polygon fill="black" stroke="black" points="1390.23,-253.62 1395.67,-244.52 1385.75,-248.24 1390.23,-253.62"/>
</g>
<!-- net_5.parametrizations_weight.original -->
<g id="node15" class="node">
<title>net_5.parametrizations_weight.original</title>
<path fill="Salmon" stroke="black" d="M1478.5,-308.5C1478.5,-308.5 1792.5,-308.5 1792.5,-308.5 1798.5,-308.5 1804.5,-314.5 1804.5,-320.5 1804.5,-320.5 1804.5,-342.5 1804.5,-342.5 1804.5,-348.5 1798.5,-354.5 1792.5,-354.5 1792.5,-354.5 1478.5,-354.5 1478.5,-354.5 1472.5,-354.5 1466.5,-348.5 1466.5,-342.5 1466.5,-342.5 1466.5,-320.5 1466.5,-320.5 1466.5,-314.5 1472.5,-308.5 1478.5,-308.5"/>
<text text-anchor="middle" x="1635.5" y="-339.3" font-family="Times,serif" font-size="14.00" fill="#000000">net_5.parametrizations_weight.original</text>
<polyline fill="none" stroke="black" points="1466.5,-331.5 1804.5,-331.5 "/>
<text text-anchor="middle" x="1635.5" y="-316.3" font-family="Times,serif" font-size="14.00" fill="#000000">op_code=get_parametertorch.float32[16, 64]</text>
</g>
<!-- net_5.parametrizations_weight.original&#45;&gt;net_5 -->
<g id="edge8" class="edge">
<title>net_5.parametrizations_weight.original&#45;&gt;net_5</title>
<path fill="none" stroke="black" d="M1608.62,-308.23C1590.04,-292.84 1564.31,-271.52 1539.68,-251.11"/>
<polygon fill="black" stroke="black" points="1541.66,-248.21 1531.73,-244.52 1537.19,-253.6 1541.66,-248.21"/>
</g>
<!-- net_5.parametrizations_weight.0.mask -->
<g id="node16" class="node">
<title>net_5.parametrizations_weight.0.mask</title>
<path fill="Salmon" stroke="black" d="M1834.5,-312.5C1834.5,-312.5 1954.5,-312.5 1954.5,-312.5 1960.5,-312.5 1966.5,-318.5 1966.5,-324.5 1966.5,-324.5 1966.5,-338.5 1966.5,-338.5 1966.5,-344.5 1960.5,-350.5 1954.5,-350.5 1954.5,-350.5 1834.5,-350.5 1834.5,-350.5 1828.5,-350.5 1822.5,-344.5 1822.5,-338.5 1822.5,-338.5 1822.5,-324.5 1822.5,-324.5 1822.5,-318.5 1828.5,-312.5 1834.5,-312.5"/>
<text text-anchor="start" x="1830.5" y="-335.3" font-family="Times,serif" font-size="14.00" fill="#000000">buffer</text>
<text text-anchor="middle" x="1894.5" y="-320.3" font-family="Times,serif" font-size="14.00" fill="#000000">torch.bool[16, 64]</text>
</g>
<!-- net_5.parametrizations_weight.0.mask&#45;&gt;net_5 -->
<g id="edge9" class="edge">
<title>net_5.parametrizations_weight.0.mask&#45;&gt;net_5</title>
<path fill="none" stroke="black" d="M1869.27,-312.45C1853.78,-302.06 1833.2,-289.42 1813.5,-281 1769.92,-262.36 1721.66,-246.64 1675.24,-233.72"/>
<polygon fill="black" stroke="black" points="1675.94,-230.29 1665.37,-231.01 1674.09,-237.04 1675.94,-230.29"/>
</g>
</g>
</svg>
