<?xml version="1.0" encoding="UTF-8" standalone="no"?>
<!DOCTYPE svg PUBLIC "-//W3C//DTD SVG 1.1//EN"
 "http://www.w3.org/Graphics/SVG/1.1/DTD/svg11.dtd">
<!-- Generated by graphviz version 2.43.0 (0)
 -->
<!-- Title: masegraph Pages: 1 -->
<svg width="1408pt" height="944pt"
 viewBox="0.00 0.00 1408.00 944.00" xmlns="http://www.w3.org/2000/svg" xmlns:xlink="http://www.w3.org/1999/xlink">
<g id="graph0" class="graph" transform="scale(1 1) rotate(0) translate(4 940)">
<title>masegraph</title>
<polygon fill="white" stroke="transparent" points="-4,4 -4,-940 1404,-940 1404,4 -4,4"/>
<!-- x -->
<g id="node1" class="node">
<title>x</title>
<path fill="AliceBlue" stroke="black" d="M12,-843.5C12,-843.5 157,-843.5 157,-843.5 163,-843.5 169,-849.5 169,-855.5 169,-855.5 169,-923.5 169,-923.5 169,-929.5 163,-935.5 157,-935.5 157,-935.5 12,-935.5 12,-935.5 6,-935.5 0,-929.5 0,-923.5 0,-923.5 0,-855.5 0,-855.5 0,-849.5 6,-843.5 12,-843.5"/>
<text text-anchor="middle" x="84.5" y="-920.3" font-family="Times,serif" font-size="14.00" fill="#000000">name=%x</text>
<polyline fill="none" stroke="black" points="0,-912.5 169,-912.5 "/>
<text text-anchor="middle" x="84.5" y="-897.3" font-family="Times,serif" font-size="14.00" fill="#000000">op_code=placeholder</text>
<polyline fill="none" stroke="black" points="0,-889.5 169,-889.5 "/>
<text text-anchor="middle" x="84.5" y="-874.3" font-family="Times,serif" font-size="14.00" fill="#000000">target=x</text>
<polyline fill="none" stroke="black" points="0,-866.5 169,-866.5 "/>
<text text-anchor="middle" x="84.5" y="-851.3" font-family="Times,serif" font-size="14.00" fill="#000000">num_users=1</text>
</g>
<!-- fc1 -->
<g id="node2" class="node">
<title>fc1</title>
<path fill="#fffacd" stroke="black" d="M184,-691.5C184,-691.5 519,-691.5 519,-691.5 525,-691.5 531,-697.5 531,-703.5 531,-703.5 531,-794.5 531,-794.5 531,-800.5 525,-806.5 519,-806.5 519,-806.5 184,-806.5 184,-806.5 178,-806.5 172,-800.5 172,-794.5 172,-794.5 172,-703.5 172,-703.5 172,-697.5 178,-691.5 184,-691.5"/>
<text text-anchor="middle" x="351.5" y="-791.3" font-family="Times,serif" font-size="14.00" fill="#000000">name=%fc1</text>
<polyline fill="none" stroke="black" points="172,-783.5 531,-783.5 "/>
<text text-anchor="middle" x="351.5" y="-768.3" font-family="Times,serif" font-size="14.00" fill="#000000">op_code=call_module</text>
<text text-anchor="middle" x="351.5" y="-737.3" font-family="Times,serif" font-size="14.00" fill="#000000">chop.nn.quantized.modules.linear.LinearInteger</text>
<polyline fill="none" stroke="black" points="172,-729.5 531,-729.5 "/>
<text text-anchor="middle" x="351.5" y="-714.3" font-family="Times,serif" font-size="14.00" fill="#000000">in_features: 2</text>
<text text-anchor="middle" x="351.5" y="-699.3" font-family="Times,serif" font-size="14.00" fill="#000000">out_features: 64</text>
</g>
<!-- x&#45;&gt;fc1 -->
<g id="edge7" class="edge">
<title>x&#45;&gt;fc1</title>
<path fill="none" stroke="black" d="M169.35,-844.49C189.75,-833.91 211.9,-822.41 233.51,-811.21"/>
<polygon fill="black" stroke="black" points="235.14,-814.3 242.4,-806.59 231.91,-808.09 235.14,-814.3"/>
</g>
<!-- relu -->
<g id="node5" class="node">
<title>relu</title>
<path fill="#ffe1ff" stroke="black" d="M275.5,-562.5C275.5,-562.5 427.5,-562.5 427.5,-562.5 433.5,-562.5 439.5,-568.5 439.5,-574.5 439.5,-574.5 439.5,-642.5 439.5,-642.5 439.5,-648.5 433.5,-654.5 427.5,-654.5 427.5,-654.5 275.5,-654.5 275.5,-654.5 269.5,-654.5 263.5,-648.5 263.5,-642.5 263.5,-642.5 263.5,-574.5 263.5,-574.5 263.5,-568.5 269.5,-562.5 275.5,-562.5"/>
<text text-anchor="middle" x="351.5" y="-639.3" font-family="Times,serif" font-size="14.00" fill="#000000">name=%relu</text>
<polyline fill="none" stroke="black" points="263.5,-631.5 439.5,-631.5 "/>
<text text-anchor="middle" x="351.5" y="-616.3" font-family="Times,serif" font-size="14.00" fill="#000000">op_code=call_function</text>
<polyline fill="none" stroke="black" points="263.5,-608.5 439.5,-608.5 "/>
<text text-anchor="middle" x="351.5" y="-593.3" font-family="Times,serif" font-size="14.00" fill="#000000">target=torch.relu</text>
<polyline fill="none" stroke="black" points="263.5,-585.5 439.5,-585.5 "/>
<text text-anchor="middle" x="351.5" y="-570.3" font-family="Times,serif" font-size="14.00" fill="#000000">num_users=1</text>
</g>
<!-- fc1&#45;&gt;relu -->
<g id="edge8" class="edge">
<title>fc1&#45;&gt;relu</title>
<path fill="none" stroke="black" d="M351.5,-691.27C351.5,-682.57 351.5,-673.6 351.5,-664.93"/>
<polygon fill="black" stroke="black" points="355,-664.92 351.5,-654.92 348,-664.92 355,-664.92"/>
</g>
<!-- fc1_weight -->
<g id="node3" class="node">
<title>fc1_weight</title>
<path fill="Salmon" stroke="black" d="M199,-866.5C199,-866.5 504,-866.5 504,-866.5 510,-866.5 516,-872.5 516,-878.5 516,-878.5 516,-900.5 516,-900.5 516,-906.5 510,-912.5 504,-912.5 504,-912.5 199,-912.5 199,-912.5 193,-912.5 187,-906.5 187,-900.5 187,-900.5 187,-878.5 187,-878.5 187,-872.5 193,-866.5 199,-866.5"/>
<text text-anchor="middle" x="351.5" y="-897.3" font-family="Times,serif" font-size="14.00" fill="#000000">fc1_weight</text>
<polyline fill="none" stroke="black" points="187,-889.5 516,-889.5 "/>
<text text-anchor="middle" x="351.5" y="-874.3" font-family="Times,serif" font-size="14.00" fill="#000000">op_code=get_parametertorch.float32[64, 2]</text>
</g>
<!-- fc1_weight&#45;&gt;fc1 -->
<g id="edge1" class="edge">
<title>fc1_weight&#45;&gt;fc1</title>
<path fill="none" stroke="black" d="M351.5,-866.25C351.5,-852.76 351.5,-834.77 351.5,-816.98"/>
<polygon fill="black" stroke="black" points="355,-816.56 351.5,-806.56 348,-816.56 355,-816.56"/>
</g>
<!-- fc1_bias -->
<g id="node4" class="node">
<title>fc1_bias</title>
<path fill="Salmon" stroke="black" d="M546,-866.5C546,-866.5 833,-866.5 833,-866.5 839,-866.5 845,-872.5 845,-878.5 845,-878.5 845,-900.5 845,-900.5 845,-906.5 839,-912.5 833,-912.5 833,-912.5 546,-912.5 546,-912.5 540,-912.5 534,-906.5 534,-900.5 534,-900.5 534,-878.5 534,-878.5 534,-872.5 540,-866.5 546,-866.5"/>
<text text-anchor="middle" x="689.5" y="-897.3" font-family="Times,serif" font-size="14.00" fill="#000000">fc1_bias</text>
<polyline fill="none" stroke="black" points="534,-889.5 845,-889.5 "/>
<text text-anchor="middle" x="689.5" y="-874.3" font-family="Times,serif" font-size="14.00" fill="#000000">op_code=get_parametertorch.float32[64]</text>
</g>
<!-- fc1_bias&#45;&gt;fc1 -->
<g id="edge2" class="edge">
<title>fc1_bias&#45;&gt;fc1</title>
<path fill="none" stroke="black" d="M635.57,-866.4C598.54,-851.23 547.47,-830.3 498.83,-810.37"/>
<polygon fill="black" stroke="black" points="500.04,-807.08 489.46,-806.53 497.39,-813.56 500.04,-807.08"/>
</g>
<!-- fc2 -->
<g id="node6" class="node">
<title>fc2</title>
<path fill="#fffacd" stroke="black" d="M459,-410.5C459,-410.5 794,-410.5 794,-410.5 800,-410.5 806,-416.5 806,-422.5 806,-422.5 806,-513.5 806,-513.5 806,-519.5 800,-525.5 794,-525.5 794,-525.5 459,-525.5 459,-525.5 453,-525.5 447,-519.5 447,-513.5 447,-513.5 447,-422.5 447,-422.5 447,-416.5 453,-410.5 459,-410.5"/>
<text text-anchor="middle" x="626.5" y="-510.3" font-family="Times,serif" font-size="14.00" fill="#000000">name=%fc2</text>
<polyline fill="none" stroke="black" points="447,-502.5 806,-502.5 "/>
<text text-anchor="middle" x="626.5" y="-487.3" font-family="Times,serif" font-size="14.00" fill="#000000">op_code=call_module</text>
<text text-anchor="middle" x="626.5" y="-456.3" font-family="Times,serif" font-size="14.00" fill="#000000">chop.nn.quantized.modules.linear.LinearInteger</text>
<polyline fill="none" stroke="black" points="447,-448.5 806,-448.5 "/>
<text text-anchor="middle" x="626.5" y="-433.3" font-family="Times,serif" font-size="14.00" fill="#000000">in_features: 64</text>
<text text-anchor="middle" x="626.5" y="-418.3" font-family="Times,serif" font-size="14.00" fill="#000000">out_features: 64</text>
</g>
<!-- relu&#45;&gt;fc2 -->
<g id="edge9" class="edge">
<title>relu&#45;&gt;fc2</title>
<path fill="none" stroke="black" d="M439.65,-563.11C460.5,-552.61 483.09,-541.23 505.13,-530.13"/>
<polygon fill="black" stroke="black" points="506.84,-533.18 514.2,-525.56 503.69,-526.93 506.84,-533.18"/>
</g>
<!-- relu_1 -->
<g id="node9" class="node">
<title>relu_1</title>
<path fill="#ffe1ff" stroke="black" d="M550.5,-281.5C550.5,-281.5 702.5,-281.5 702.5,-281.5 708.5,-281.5 714.5,-287.5 714.5,-293.5 714.5,-293.5 714.5,-361.5 714.5,-361.5 714.5,-367.5 708.5,-373.5 702.5,-373.5 702.5,-373.5 550.5,-373.5 550.5,-373.5 544.5,-373.5 538.5,-367.5 538.5,-361.5 538.5,-361.5 538.5,-293.5 538.5,-293.5 538.5,-287.5 544.5,-281.5 550.5,-281.5"/>
<text text-anchor="middle" x="626.5" y="-358.3" font-family="Times,serif" font-size="14.00" fill="#000000">name=%relu_1</text>
<polyline fill="none" stroke="black" points="538.5,-350.5 714.5,-350.5 "/>
<text text-anchor="middle" x="626.5" y="-335.3" font-family="Times,serif" font-size="14.00" fill="#000000">op_code=call_function</text>
<polyline fill="none" stroke="black" points="538.5,-327.5 714.5,-327.5 "/>
<text text-anchor="middle" x="626.5" y="-312.3" font-family="Times,serif" font-size="14.00" fill="#000000">target=torch.relu</text>
<polyline fill="none" stroke="black" points="538.5,-304.5 714.5,-304.5 "/>
<text text-anchor="middle" x="626.5" y="-289.3" font-family="Times,serif" font-size="14.00" fill="#000000">num_users=1</text>
</g>
<!-- fc2&#45;&gt;relu_1 -->
<g id="edge10" class="edge">
<title>fc2&#45;&gt;relu_1</title>
<path fill="none" stroke="black" d="M626.5,-410.27C626.5,-401.57 626.5,-392.6 626.5,-383.93"/>
<polygon fill="black" stroke="black" points="630,-383.92 626.5,-373.92 623,-383.92 630,-383.92"/>
</g>
<!-- fc2_weight -->
<g id="node7" class="node">
<title>fc2_weight</title>
<path fill="Salmon" stroke="black" d="M469.5,-585.5C469.5,-585.5 783.5,-585.5 783.5,-585.5 789.5,-585.5 795.5,-591.5 795.5,-597.5 795.5,-597.5 795.5,-619.5 795.5,-619.5 795.5,-625.5 789.5,-631.5 783.5,-631.5 783.5,-631.5 469.5,-631.5 469.5,-631.5 463.5,-631.5 457.5,-625.5 457.5,-619.5 457.5,-619.5 457.5,-597.5 457.5,-597.5 457.5,-591.5 463.5,-585.5 469.5,-585.5"/>
<text text-anchor="middle" x="626.5" y="-616.3" font-family="Times,serif" font-size="14.00" fill="#000000">fc2_weight</text>
<polyline fill="none" stroke="black" points="457.5,-608.5 795.5,-608.5 "/>
<text text-anchor="middle" x="626.5" y="-593.3" font-family="Times,serif" font-size="14.00" fill="#000000">op_code=get_parametertorch.float32[64, 64]</text>
</g>
<!-- fc2_weight&#45;&gt;fc2 -->
<g id="edge3" class="edge">
<title>fc2_weight&#45;&gt;fc2</title>
<path fill="none" stroke="black" d="M626.5,-585.25C626.5,-571.76 626.5,-553.77 626.5,-535.98"/>
<polygon fill="black" stroke="black" points="630,-535.56 626.5,-525.56 623,-535.56 630,-535.56"/>
</g>
<!-- fc2_bias -->
<g id="node8" class="node">
<title>fc2_bias</title>
<path fill="Salmon" stroke="black" d="M826,-585.5C826,-585.5 1113,-585.5 1113,-585.5 1119,-585.5 1125,-591.5 1125,-597.5 1125,-597.5 1125,-619.5 1125,-619.5 1125,-625.5 1119,-631.5 1113,-631.5 1113,-631.5 826,-631.5 826,-631.5 820,-631.5 814,-625.5 814,-619.5 814,-619.5 814,-597.5 814,-597.5 814,-591.5 820,-585.5 826,-585.5"/>
<text text-anchor="middle" x="969.5" y="-616.3" font-family="Times,serif" font-size="14.00" fill="#000000">fc2_bias</text>
<polyline fill="none" stroke="black" points="814,-608.5 1125,-608.5 "/>
<text text-anchor="middle" x="969.5" y="-593.3" font-family="Times,serif" font-size="14.00" fill="#000000">op_code=get_parametertorch.float32[64]</text>
</g>
<!-- fc2_bias&#45;&gt;fc2 -->
<g id="edge4" class="edge">
<title>fc2_bias&#45;&gt;fc2</title>
<path fill="none" stroke="black" d="M914.77,-585.4C877.19,-570.23 825.36,-549.3 776.01,-529.37"/>
<polygon fill="black" stroke="black" points="777.08,-526.03 766.5,-525.53 774.46,-532.52 777.08,-526.03"/>
</g>
<!-- fc3 -->
<g id="node10" class="node">
<title>fc3</title>
<path fill="#fffacd" stroke="black" d="M734,-129.5C734,-129.5 1069,-129.5 1069,-129.5 1075,-129.5 1081,-135.5 1081,-141.5 1081,-141.5 1081,-232.5 1081,-232.5 1081,-238.5 1075,-244.5 1069,-244.5 1069,-244.5 734,-244.5 734,-244.5 728,-244.5 722,-238.5 722,-232.5 722,-232.5 722,-141.5 722,-141.5 722,-135.5 728,-129.5 734,-129.5"/>
<text text-anchor="middle" x="901.5" y="-229.3" font-family="Times,serif" font-size="14.00" fill="#000000">name=%fc3</text>
<polyline fill="none" stroke="black" points="722,-221.5 1081,-221.5 "/>
<text text-anchor="middle" x="901.5" y="-206.3" font-family="Times,serif" font-size="14.00" fill="#000000">op_code=call_module</text>
<text text-anchor="middle" x="901.5" y="-175.3" font-family="Times,serif" font-size="14.00" fill="#000000">chop.nn.quantized.modules.linear.LinearInteger</text>
<polyline fill="none" stroke="black" points="722,-167.5 1081,-167.5 "/>
<text text-anchor="middle" x="901.5" y="-152.3" font-family="Times,serif" font-size="14.00" fill="#000000">in_features: 64</text>
<text text-anchor="middle" x="901.5" y="-137.3" font-family="Times,serif" font-size="14.00" fill="#000000">out_features: 16</text>
</g>
<!-- relu_1&#45;&gt;fc3 -->
<g id="edge11" class="edge">
<title>relu_1&#45;&gt;fc3</title>
<path fill="none" stroke="black" d="M714.65,-282.11C735.5,-271.61 758.09,-260.23 780.13,-249.13"/>
<polygon fill="black" stroke="black" points="781.84,-252.18 789.2,-244.56 778.69,-245.93 781.84,-252.18"/>
</g>
<!-- output -->
<g id="node13" class="node">
<title>output</title>
<path fill="PowderBlue" stroke="black" d="M847,-0.5C847,-0.5 956,-0.5 956,-0.5 962,-0.5 968,-6.5 968,-12.5 968,-12.5 968,-80.5 968,-80.5 968,-86.5 962,-92.5 956,-92.5 956,-92.5 847,-92.5 847,-92.5 841,-92.5 835,-86.5 835,-80.5 835,-80.5 835,-12.5 835,-12.5 835,-6.5 841,-0.5 847,-0.5"/>
<text text-anchor="middle" x="901.5" y="-77.3" font-family="Times,serif" font-size="14.00" fill="#000000">name=%output</text>
<polyline fill="none" stroke="black" points="835,-69.5 968,-69.5 "/>
<text text-anchor="middle" x="901.5" y="-54.3" font-family="Times,serif" font-size="14.00" fill="#000000">op_code=output</text>
<polyline fill="none" stroke="black" points="835,-46.5 968,-46.5 "/>
<text text-anchor="middle" x="901.5" y="-31.3" font-family="Times,serif" font-size="14.00" fill="#000000">target=output</text>
<polyline fill="none" stroke="black" points="835,-23.5 968,-23.5 "/>
<text text-anchor="middle" x="901.5" y="-8.3" font-family="Times,serif" font-size="14.00" fill="#000000">num_users=0</text>
</g>
<!-- fc3&#45;&gt;output -->
<g id="edge12" class="edge">
<title>fc3&#45;&gt;output</title>
<path fill="none" stroke="black" d="M901.5,-129.27C901.5,-120.57 901.5,-111.6 901.5,-102.93"/>
<polygon fill="black" stroke="black" points="905,-102.92 901.5,-92.92 898,-102.92 905,-102.92"/>
</g>
<!-- fc3_weight -->
<g id="node11" class="node">
<title>fc3_weight</title>
<path fill="Salmon" stroke="black" d="M744.5,-304.5C744.5,-304.5 1058.5,-304.5 1058.5,-304.5 1064.5,-304.5 1070.5,-310.5 1070.5,-316.5 1070.5,-316.5 1070.5,-338.5 1070.5,-338.5 1070.5,-344.5 1064.5,-350.5 1058.5,-350.5 1058.5,-350.5 744.5,-350.5 744.5,-350.5 738.5,-350.5 732.5,-344.5 732.5,-338.5 732.5,-338.5 732.5,-316.5 732.5,-316.5 732.5,-310.5 738.5,-304.5 744.5,-304.5"/>
<text text-anchor="middle" x="901.5" y="-335.3" font-family="Times,serif" font-size="14.00" fill="#000000">fc3_weight</text>
<polyline fill="none" stroke="black" points="732.5,-327.5 1070.5,-327.5 "/>
<text text-anchor="middle" x="901.5" y="-312.3" font-family="Times,serif" font-size="14.00" fill="#000000">op_code=get_parametertorch.float32[16, 64]</text>
</g>
<!-- fc3_weight&#45;&gt;fc3 -->
<g id="edge5" class="edge">
<title>fc3_weight&#45;&gt;fc3</title>
<path fill="none" stroke="black" d="M901.5,-304.25C901.5,-290.76 901.5,-272.77 901.5,-254.98"/>
<polygon fill="black" stroke="black" points="905,-254.56 901.5,-244.56 898,-254.56 905,-254.56"/>
</g>
<!-- fc3_bias -->
<g id="node12" class="node">
<title>fc3_bias</title>
<path fill="Salmon" stroke="black" d="M1101,-304.5C1101,-304.5 1388,-304.5 1388,-304.5 1394,-304.5 1400,-310.5 1400,-316.5 1400,-316.5 1400,-338.5 1400,-338.5 1400,-344.5 1394,-350.5 1388,-350.5 1388,-350.5 1101,-350.5 1101,-350.5 1095,-350.5 1089,-344.5 1089,-338.5 1089,-338.5 1089,-316.5 1089,-316.5 1089,-310.5 1095,-304.5 1101,-304.5"/>
<text text-anchor="middle" x="1244.5" y="-335.3" font-family="Times,serif" font-size="14.00" fill="#000000">fc3_bias</text>
<polyline fill="none" stroke="black" points="1089,-327.5 1400,-327.5 "/>
<text text-anchor="middle" x="1244.5" y="-312.3" font-family="Times,serif" font-size="14.00" fill="#000000">op_code=get_parametertorch.float32[16]</text>
</g>
<!-- fc3_bias&#45;&gt;fc3 -->
<g id="edge6" class="edge">
<title>fc3_bias&#45;&gt;fc3</title>
<path fill="none" stroke="black" d="M1189.77,-304.4C1152.19,-289.23 1100.36,-268.3 1051.01,-248.37"/>
<polygon fill="black" stroke="black" points="1052.08,-245.03 1041.5,-244.53 1049.46,-251.52 1052.08,-245.03"/>
</g>
</g>
</svg>
